<?xml version="1.0" encoding="UTF-8"?>
<!DOCTYPE svg PUBLIC "-//W3C//DTD SVG 1.1//EN" "http://www.w3.org/Graphics/SVG/1.1/DTD/svg11.dtd">
<!-- Creator: CorelDRAW 2021 (64-Bit) -->
<svg xmlns="http://www.w3.org/2000/svg" xml:space="preserve" width="443px" height="512px" version="1.1" shape-rendering="geometricPrecision" text-rendering="geometricPrecision" image-rendering="optimizeQuality" fill-rule="evenodd" clip-rule="evenodd"
viewBox="0 0 443 511.52"
 xmlns:xlink="http://www.w3.org/1999/xlink"
 xmlns:xodm="http://www.corel.com/coreldraw/odm/2003">
 <g id="Layer_x0020_1">
  <metadata id="CorelCorpID_0Corel-Layer"/>
  <path id="hand-line.svg" fill="black" fill-rule="nonzero" d="M286.12 155.88c-10.1,-10.38 -25.77,-13.6 -39.32,-7.54l1.46 -7.49c1.83,-9.48 -0.37,-18.85 -5.41,-26.3 -10.81,-15.99 -32.68,-20.23 -48.67,-9.42 -7.45,5.04 -13,12.9 -14.83,22.38l-1.47 7.61c-11.85,-11.92 -30.52,-13.73 -44.47,-4.3 -7.45,5.04 -12.99,12.91 -14.82,22.39l-31.69 163.74c-0.99,2.77 -1.77,5.62 -2.33,8.51 0,0 0,0.01 0,0.01l-1.87 9.63 -0.7 -0.96c-4.84,-6.72 -9.52,-13.65 -11.28,-16.25 -11.84,-17.57 -27.06,-23.74 -40.38,-22.19 -28.76,3.37 -36.94,35.15 -25.11,59.18 3.21,6.49 14.12,22.24 17.74,28.04 20.31,32.41 54.93,88.55 80.51,104.94 37.93,24.31 121.84,34.13 158.8,8.84 18.39,-12.7 32.57,-31.7 38.82,-54.54 1.2,-1.1 2.4,-2.24 3.56,-3.41 43.09,-43.53 86.11,-87.03 129.19,-130.59 17.51,-17.69 8.67,-48.37 -16.18,-53.44l6.03 -6.09c6.16,-6.21 9.2,-14.37 9.16,-22.51 -0.08,-15.44 -11.21,-28.55 -26.34,-31.12l4.87 -4.91c6.15,-6.21 9.2,-14.37 9.16,-22.51 -0.1,-17.47 -14.44,-31.65 -31.91,-31.55 -8.14,0.04 -16.27,3.16 -22.42,9.38l-4.93 4.98c-2.92,-14.92 -16.06,-25.67 -31.3,-25.59 -8.14,0.05 -16.28,3.19 -22.42,9.4l-21.45 21.68zm-29.48 -84.97c1.53,5.91 -2.02,11.96 -7.94,13.49 -5.91,1.52 -11.96,-2.03 -13.48,-7.94l-11.61 -44.31c-1.53,-5.92 2.03,-11.96 7.94,-13.49 5.92,-1.53 11.96,2.03 13.49,7.94l11.6 44.31zm48.08 -12.88c-0.9,6.05 -6.56,10.23 -12.62,9.33 -6.06,-0.91 -10.23,-6.57 -9.33,-12.63l6.9 -45.28c0.9,-6.05 6.56,-10.23 12.62,-9.33 6.06,0.91 10.23,6.57 9.33,12.63l-6.9 45.28zm29.34 39.3c-3.88,4.72 -10.86,5.4 -15.57,1.52 -4.72,-3.89 -5.4,-10.86 -1.52,-15.58l32.99 -40.19c3.88,-4.72 10.85,-5.4 15.57,-1.52 4.71,3.88 5.39,10.86 1.51,15.57l-32.98 40.2z"/>
  <path id="hand-line.svg_0" fill="#FFC09D" fill-rule="nonzero" d="M287.16 431.73c-4.24,21.96 -16.86,40.21 -33.89,51.86 -31.49,21.56 -109.03,11.51 -141.23,-9.11 -23.82,-15.25 -62.21,-78.46 -79.74,-106.51 -3.93,-6.28 -7.4,-10.68 -10.98,-16.74 -8.25,-13.99 -8.39,-37.5 10.86,-39.74 7.89,-0.92 17.31,3.38 25.34,15.28 1.84,2.72 6.73,9.96 11.58,16.68 4.54,6.3 9.34,12.42 12.67,15.27 1.11,1.1 2.53,1.85 4.06,2.15 0.01,0 0.01,0 0.01,0l6.78 -1.83 7.84 -30.51c11.16,-57.7 22.58,-114.39 33.79,-172.29 0.99,-5.16 4.02,-9.44 8.09,-12.19 8.74,-5.89 20.64,-3.61 26.53,5.13 2.75,4.07 3.96,9.18 2.96,14.34l-21.74 112.33 16.2 3.13 28.72 -148.42c1,-5.16 4.03,-9.45 8.09,-12.2 8.75,-5.91 20.62,-3.61 26.53,5.13 2.75,4.07 3.96,9.18 2.96,14.34l-28.72 148.42 16.56 3.21 21.81 -112.69c0.99,-5.16 4.02,-9.45 8.1,-12.2 8.73,-5.91 20.63,-3.61 26.52,5.13 2.76,4.06 3.96,9.18 2.97,14.34l-21.81 112.7 15.67 3.03 14.43 -74.55c0.99,-5.16 4.01,-9.45 8.09,-12.2 14.22,-9.61 32.67,3.04 29.49,19.47 -12.86,66.41 -25.68,132.83 -38.54,199.24zm6.83 -263.35l23.85 -24.03c3.33,-3.38 7.77,-5.08 12.22,-5.11 9.54,-0.04 17.35,7.67 17.39,17.21 0.02,4.44 -1.64,8.89 -4.99,12.28l-26.05 26.32c-7.06,-2.04 -14.93,-1.87 -22.72,1.31l1.81 -9.3c1.25,-6.47 0.62,-12.89 -1.51,-18.68zm36.03 34.15l46.47 -46.95c3.34,-3.39 7.78,-5.09 12.22,-5.13 9.54,-0.04 17.33,7.66 17.37,17.22 0.05,4.44 -1.63,8.9 -4.97,12.27l-60.91 61.57 1.16 -5.99c2.54,-13.11 -2.51,-25.21 -11.34,-32.99zm4.97 65.94l53.8 -54.37c3.35,-3.38 7.78,-5.09 12.23,-5.1 9.55,-0.07 17.35,7.65 17.39,17.2 0.03,4.43 -1.64,8.89 -4.98,12.28l-73.09 73.86 10.27 10.15 48.35 -48.85c3.34,-3.38 7.77,-5.1 12.22,-5.11 15.53,-0.09 23.07,18.71 12.41,29.47l-117.23 118.51 28.63 -148.04z"/>
 </g>
</svg>
